<?xml version="1.0" encoding="UTF-8"?>
<!-- Generated by Pixelmator Pro 2.4.1 -->
<svg width="415" height="432" viewBox="0 0 415 432" xmlns="http://www.w3.org/2000/svg" xmlns:xlink="http://www.w3.org/1999/xlink">
    <g id="Group">
        <path id="Ellipse" fill="none" stroke="#000000" stroke-width="8" stroke-linecap="round" stroke-linejoin="round" d="M 410 211.5 C 410 98.55777 318.44223 7 205.5 7 C 92.55777 7 1 98.55777 1 211.5 C 1 324.44223 92.55777 416 205.5 416 C 318.44223 416 410 324.44223 410 211.5 Z"/>
        <path id="Ellipse-copy" fill="#ffffff" fill-rule="evenodd" stroke="none" visibility="hidden" d="M 407.5 215 C 407.5 103.990753 317.509247 14 206.5 14 C 95.490768 14 5.5 103.990753 5.5 215 C 5.5 326.009216 95.490768 416 206.5 416 C 317.509247 416 407.5 326.009216 407.5 215 Z"/>
        <path id="Shape" fill="#000000" fill-rule="evenodd" stroke="none" d="M 192.5 141.761261 C 204.125 141.436096 209.507416 140.609741 211.960968 139.715149 C 214.41449 138.820526 216.62558 138.292236 216.874512 138.541168 C 217.123444 138.790131 217.057953 163.63269 216.728943 193.746887 C 216.265839 236.135025 216.398285 248.075333 217.315369 246.619522 C 217.966919 245.585251 220.340881 242.210251 222.590851 239.119522 C 224.84082 236.028778 228.816864 231.141006 231.426514 228.257797 C 234.036163 225.374588 240.070282 219.745148 244.835663 215.747925 C 249.601044 211.750717 257.243622 206.286194 261.819183 203.604523 C 268.813019 199.505585 270.909241 197.631134 274.977112 191.838684 C 277.638428 188.049103 281.060516 181.472626 282.581787 177.224274 C 284.103027 172.975922 285.460541 169.346405 285.59848 169.158691 C 285.73642 168.970978 286.834503 169.130096 288.038666 169.512268 C 289.911499 170.106689 290.144775 170.720337 289.65213 173.756226 C 289.335358 175.708221 287.27182 180.924347 285.066437 185.347656 C 282.861084 189.770966 281.192963 193.526306 281.359528 193.692841 C 281.526093 193.859406 284.949554 192.877655 288.967224 191.511139 C 292.984924 190.144653 299.473389 188.329102 303.386047 187.476593 C 307.298737 186.624115 317.839905 185.650635 326.810913 185.313354 C 343.121826 184.700073 343.121826 184.700073 342.810913 189.600037 C 342.5 194.5 342.5 194.5 338.5 194.227997 C 336.299988 194.0784 328.424988 194.450775 321 195.055542 C 309.901733 195.959473 305.276184 196.871094 295 200.179626 C 288.125 202.393097 278.158936 206.457672 272.85321 209.21199 C 267.547455 211.966309 259.40271 217.07457 254.753723 220.56369 C 250.104736 224.052795 243.745056 229.668304 240.621063 233.042587 C 237.49707 236.41687 232.721466 242.466949 230.008636 246.487198 C 227.295807 250.507446 223.146576 257.554993 220.788116 262.148376 C 216.5 270.5 216.5 270.5 215.86441 296.5 C 215.514832 310.799988 215.177338 340.612488 215.11441 362.75 L 215 403 L 222.484222 403 C 229.275116 403 230.259857 403.260376 233.114014 405.810547 C 235.482391 407.926727 236.448181 409.841492 237.022949 413.560547 C 237.5354 416.876282 237.373718 419.486176 236.531189 421.5 C 235.840851 423.149994 234.376099 425.300964 233.276184 426.279938 C 232.1763 427.258911 228.626678 428.493805 225.388184 429.024139 C 222.149689 429.554504 213.424988 429.919006 206 429.834167 C 198.575012 429.749329 190.924988 429.505341 189 429.291992 C 187.075012 429.078613 181.230896 428.232697 176.013123 427.41217 C 168.329712 426.203918 166.005371 425.421265 163.786255 423.295197 C 162.279236 421.85141 160.560608 419.198608 159.967041 417.400146 C 159.209747 415.10553 159.19812 412.977997 159.927979 410.267456 C 160.500061 408.142975 162.229065 405.196655 163.770233 403.720123 C 165.311401 402.243591 167.906067 400.786377 169.536163 400.481812 C 171.16629 400.177277 176.294159 400.61261 180.931488 401.449249 C 185.568817 402.285858 189.456665 402.864532 189.571167 402.735168 C 189.685669 402.605835 190.262024 356.597778 190.85199 300.495056 C 191.792603 211.045547 191.74176 197.866241 190.438812 193.421448 C 189.621582 190.633667 187.181274 184.888397 185.015869 180.654144 C 182.850464 176.419922 178.512421 169.545685 175.375793 165.378113 C 172.239166 161.21051 166.93396 155.516724 163.586426 152.725281 C 160.238892 149.933807 154.869644 145.982971 151.654755 143.945587 C 148.439865 141.908234 142.589859 138.974335 138.654755 137.425812 C 134.719635 135.877289 131.306854 134.467346 131.07077 134.292603 C 130.834702 134.117859 131.389465 132.406494 132.303589 130.489563 C 133.965622 127.004242 133.965622 127.004242 140.732803 129.544678 C 144.454758 130.941895 150.425003 133.831238 154 135.965393 C 157.575012 138.099579 163.649994 142.534851 167.5 145.821533 C 171.350006 149.108246 176.811707 154.655457 179.637115 158.148682 C 182.462524 161.641907 186.388977 167.186188 188.362549 170.46933 C 191.950897 176.438629 191.950897 176.438629 192.225433 159.099945 L 192.5 141.761261 Z"/>
        <path id="path1" fill="#000000" fill-rule="evenodd" stroke="none" d="M 280.01181 419.640198 C 278.080322 419.852509 275.149994 419.405121 273.5 418.646057 C 271.850006 417.886963 269.534302 415.937592 268.354004 414.314117 C 266.81958 412.203552 266.262115 410.099579 266.397827 406.931183 C 266.502228 404.494019 267.413239 401.253265 268.422272 399.729462 C 269.662567 397.856476 274.768616 394.70874 284.183411 390.013092 C 291.842987 386.192871 303.147675 379.582825 309.304932 375.324097 C 317.362183 369.751251 321.575104 367.467804 324.335724 367.177277 C 326.640503 366.934692 329.705475 367.465302 332.01474 368.506653 C 335.368134 370.018799 336.009033 370.869202 337.042694 375.177948 C 338.039154 379.331696 337.970062 380.789886 336.607697 384.357147 C 335.519165 387.207458 333.432434 389.774567 330.244019 392.18576 C 327.634827 394.158966 321.674988 398.24646 317 401.269135 C 312.325012 404.291779 302.88031 409.574982 296.01181 413.009552 C 289.143311 416.444092 281.943329 419.427917 280.01181 419.640198 Z"/>
        <path id="Shape-copy" fill="#000000" fill-rule="evenodd" stroke="none" d="M 119.180588 411.802917 C 121.0793 412.215942 124.040344 412.077332 125.760643 411.494873 C 127.480942 410.912415 129.987732 409.21579 131.331253 407.724579 C 133.077896 405.78595 133.852234 403.75177 134.048447 400.586548 C 134.199371 398.151855 133.632095 394.833588 132.787872 393.212677 C 131.750153 391.220306 127.001106 387.556061 118.128716 381.902039 C 110.910423 377.302124 100.358597 369.546631 94.680229 364.667603 C 87.249641 358.283081 83.298485 355.571777 80.583351 354.994263 C 78.316559 354.512085 75.212914 354.719421 72.807449 355.513672 C 69.314362 356.667053 68.588081 357.44577 67.109695 361.622864 C 65.684509 365.649719 65.6008 367.107117 66.582825 370.797272 C 67.367455 373.745728 69.174416 376.516907 72.09333 379.248169 C 74.481972 381.483276 79.981895 386.171387 84.315323 389.666168 C 88.648743 393.160919 97.489464 399.402405 103.961327 403.536102 C 110.433189 407.66983 117.281837 411.389862 119.180588 411.802917 Z"/>
        <path id="Shape-copy-2" fill="#000000" fill-rule="evenodd" stroke="none" d="M 35.538425 338.076172 C 36.650749 338.792969 38.596458 339.342987 39.862202 339.298401 C 41.127945 339.253845 43.20097 338.573822 44.46891 337.787231 C 46.117279 336.764648 47.164787 335.459106 48.144657 333.206055 C 48.89838 331.472992 49.42746 328.941162 49.320408 327.579834 C 49.188805 325.906494 47.116093 322.204926 42.922459 316.153931 C 39.510647 311.231079 34.801254 303.286621 32.457142 298.499634 C 29.389685 292.235504 27.574265 289.400513 25.980125 288.385071 C 24.649218 287.537231 22.593077 287.005737 20.828651 287.053406 C 18.266453 287.12265 17.588415 287.528015 15.509385 290.233398 C 13.505155 292.841492 13.058251 293.880341 12.696202 296.773071 C 12.406905 299.084351 12.824295 301.491669 13.969065 304.114349 C 14.905861 306.26059 17.186445 310.869873 19.036985 314.357208 C 20.887527 317.844513 24.902361 324.314697 27.958815 328.735352 C 31.015268 333.156006 34.426083 337.359375 35.538425 338.076172 Z"/>
        <path id="Shape-copy-3" fill="#000000" fill-rule="evenodd" stroke="none" d="M 390.935577 308.551392 C 390.930939 307.228119 390.332489 305.296753 389.605743 304.259491 C 388.878998 303.222229 387.179626 301.854004 385.829376 301.219055 C 384.073975 300.393555 382.408569 300.226074 379.985321 300.631378 C 378.121338 300.943146 375.709839 301.878357 374.626404 302.709595 C 373.294708 303.731323 371.319183 307.485657 368.528442 314.29834 C 366.257965 319.840912 362.160126 328.117371 359.422119 332.690491 C 355.839233 338.674774 354.450348 341.741364 354.466919 343.631378 C 354.480774 345.20932 355.154877 347.223236 356.155823 348.677032 C 357.609344 350.788177 358.318604 351.136047 361.719849 351.406219 C 364.998749 351.666626 366.113434 351.475647 368.736633 350.203796 C 370.832642 349.187561 372.624237 347.526428 374.200317 345.137939 C 375.490082 343.18335 378.113678 338.760284 380.030518 335.30896 C 381.947357 331.857635 385.187042 324.966583 387.229858 319.995575 C 389.272675 315.024536 390.940247 309.874695 390.935577 308.551392 Z"/>
        <g id="g1">
            <path id="path2" fill="#f5e037" fill-rule="evenodd" stroke="none" d="M 243.5 103.5 C 243.5 80.027893 224.472107 61 201 61 C 177.527893 61 158.5 80.027893 158.5 103.5 C 158.5 126.972107 177.527893 146 201 146 C 224.472107 146 243.5 126.972107 243.5 103.5 Z"/>
            <path id="Ellipse-copy-2" fill="#7ab736" fill-rule="evenodd" stroke="none" d="M 235.5 102.5 C 235.5 83.446167 220.053833 68 201 68 C 181.946182 68 166.5 83.446167 166.5 102.5 C 166.5 121.553833 181.946182 137 201 137 C 220.053833 137 235.5 121.553833 235.5 102.5 Z"/>
        </g>
        <g id="g2">
            <path id="Ellipse-copy-4" fill="#f5e037" fill-rule="evenodd" stroke="none" d="M 137.5 120.25 C 137.5 102.991089 123.508896 89 106.25 89 C 88.991104 89 75 102.991089 75 120.25 C 75 137.508911 88.991104 151.5 106.25 151.5 C 123.508896 151.5 137.5 137.508911 137.5 120.25 Z"/>
            <path id="Ellipse-copy-3" fill="#7ab736" fill-rule="evenodd" stroke="none" d="M 131.617645 119.514709 C 131.617645 105.504547 120.260162 94.147064 106.25 94.147064 C 92.239838 94.147064 80.882355 105.504547 80.882355 119.514709 C 80.882355 133.524872 92.239838 144.882355 106.25 144.882355 C 120.260162 144.882355 131.617645 133.524872 131.617645 119.514709 Z"/>
        </g>
        <g id="Group-copy">
            <path id="path3" fill="#f5e037" fill-rule="evenodd" stroke="none" d="M 108.5 185.25 C 108.5 174.066223 99.433762 165 88.25 165 C 77.066231 165 68 174.066223 68 185.25 C 68 196.433762 77.066231 205.5 88.25 205.5 C 99.433762 205.5 108.5 196.433762 108.5 185.25 Z"/>
            <path id="path4" fill="#7ab736" fill-rule="evenodd" stroke="none" d="M 104.68824 184.773529 C 104.68824 175.694946 97.32859 168.335297 88.25 168.335297 C 79.17141 168.335297 71.811768 175.694946 71.811768 184.773529 C 71.811768 193.852112 79.17141 201.211761 88.25 201.211761 C 97.32859 201.211761 104.68824 193.852112 104.68824 184.773529 Z"/>
        </g>
        <g id="Group-copy-2">
            <path id="path5" fill="#f5e037" fill-rule="evenodd" stroke="none" d="M 180.25 212.5 C 180.25 193.998459 165.251541 179 146.75 179 C 128.248459 179 113.25 193.998459 113.25 212.5 C 113.25 231.001541 128.248459 246 146.75 246 C 165.251541 246 180.25 231.001541 180.25 212.5 Z"/>
            <path id="path6" fill="#7ab736" fill-rule="evenodd" stroke="none" d="M 173.944122 211.711761 C 173.944122 196.692871 161.76889 184.517639 146.75 184.517639 C 131.73111 184.517639 119.555885 196.692871 119.555885 211.711761 C 119.555885 226.730667 131.73111 238.905884 146.75 238.905884 C 161.76889 238.905884 173.944122 226.730667 173.944122 211.711761 Z"/>
        </g>
        <g id="Group-copy-3">
            <path id="path7" fill="#f5e037" fill-rule="evenodd" stroke="none" d="M 269 186.875 C 269 173.136902 257.863098 162 244.125 162 C 230.386917 162 219.25 173.136902 219.25 186.875 C 219.25 200.613083 230.386917 211.75 244.125 211.75 C 257.863098 211.75 269 200.613083 269 186.875 Z"/>
            <path id="path8" fill="#7ab736" fill-rule="evenodd" stroke="none" d="M 264.317657 186.289703 C 264.317657 175.137604 255.277084 166.097046 244.125 166.097046 C 232.972916 166.097046 223.932358 175.137604 223.932358 186.289703 C 223.932358 197.441803 232.972916 206.482346 244.125 206.482346 C 255.277084 206.482346 264.317657 197.441803 264.317657 186.289703 Z"/>
        </g>
        <g id="Group-copy-6">
            <path id="path9" fill="#f5e037" fill-rule="evenodd" stroke="none" d="M 345.625 231.5 C 345.625 214.103027 331.521973 200 314.125 200 C 296.728027 200 282.625 214.103027 282.625 231.5 C 282.625 248.896973 296.728027 263 314.125 263 C 331.521973 263 345.625 248.896973 345.625 231.5 Z"/>
            <path id="path10" fill="#7ab736" fill-rule="evenodd" stroke="none" d="M 339.695587 230.75882 C 339.695587 216.636581 328.247253 205.188232 314.125 205.188232 C 300.002747 205.188232 288.554413 216.636581 288.554413 230.75882 C 288.554413 244.881073 300.002747 256.329407 314.125 256.329407 C 328.247253 256.329407 339.695587 244.881073 339.695587 230.75882 Z"/>
        </g>
        <g id="Group-copy-4">
            <path id="path11" fill="#f5e037" fill-rule="evenodd" stroke="none" d="M 287 94.875 C 287 83.346069 277.653931 74 266.125 74 C 254.596054 74 245.25 83.346069 245.25 94.875 C 245.25 106.403931 254.596054 115.75 266.125 115.75 C 277.653931 115.75 287 106.403931 287 94.875 Z"/>
            <path id="path12" fill="#7ab736" fill-rule="evenodd" stroke="none" d="M 283.070587 94.38382 C 283.070587 85.025024 275.483795 77.438232 266.125 77.438232 C 256.766205 77.438232 249.179413 85.025024 249.179413 94.38382 C 249.179413 103.742615 256.766205 111.329407 266.125 111.329407 C 275.483795 111.329407 283.070587 103.742615 283.070587 94.38382 Z"/>
        </g>
        <g id="Group-copy-5">
            <path id="path13" fill="#f5e037" fill-rule="evenodd" stroke="none" d="M 335.125 142 C 335.125 123.222321 319.902679 108 301.125 108 C 282.347321 108 267.125 123.222321 267.125 142 C 267.125 160.777679 282.347321 176 301.125 176 C 319.902679 176 335.125 160.777679 335.125 142 Z"/>
            <path id="path14" fill="#7ab736" fill-rule="evenodd" stroke="none" d="M 328.725006 141.200012 C 328.725006 125.95694 316.368073 113.600006 301.125 113.600006 C 285.881927 113.600006 273.524994 125.95694 273.524994 141.200012 C 273.524994 156.443054 285.881927 168.799988 301.125 168.799988 C 316.368073 168.799988 328.725006 156.443054 328.725006 141.200012 Z"/>
        </g>
    </g>
</svg>
